#!OML:ASF Y:\EmotionMaleHayes\Project 1\Capture day 1\Session 1\Male1.ASF
:FULLY-SPECIFIED
:DEGREES
362
root -14.2859 16.1851 13.0913 -8.75007 73.3586 -12.1805
lowerback 14.0357 1.74207 -3.96585
upperback 5.23031 1.93574 -1.18008
thorax -2.42743 1.02628 0.692122
lowerneck -21.0412 8.60667 12.1414
upperneck 24.2318 11.3585 -10.4048
head 12.9378 4.92419 -3.96409
rclavicle 4.17448e-014 -1.74931e-014
rhumerus -39.9514 24.5576 -91.4769
rradius 44.9165
rwrist -15.4132
rhand -21.9606 -32.6436
rfingers 7.12502
rthumb 4.44679 -62.5769
lclavicle 4.17448e-014 -1.74931e-014
lhumerus -31.5836 -29.2459 93.8914
lradius 55.1669
lwrist 23.4861
lhand -30.1145 -26.1924
lfingers 7.12502
lthumb -3.42801 3.75981
rfemur -18.1451 0.579802 6.57828
rtibia 68.6973
rfoot -0.207806 1.81398
rtoes 12.6565
lfemur -11.5404 -0.498097 -37.4198
ltibia 24.5898
lfoot -20.9926 8.70218
ltoes 29.4392
363
root -14.0478 16.2682 13.1348 -7.97514 75.3396 -11.512
lowerback 13.7295 1.52759 -4.17058
upperback 5.26187 1.65053 -1.12273
thorax -2.22382 0.881091 0.921383
lowerneck -21.6736 8.47012 11.9067
upperneck 24.459 11.1657 -10.3246
head 13.1084 4.805 -3.92286
rclavicle -8.74653e-015 -2.54444e-014
rhumerus -41.2146 23.4471 -90.785
rradius 42.3925
rwrist -15.261
rhand -21.1758 -32.4568
rfingers 7.12502
rthumb 5.20464 -62.3729
lclavicle -8.74653e-015 -2.54444e-014
lhumerus -30.0968 -30.6137 93.5766
lradius 57.9771
lwrist 23.3819
lhand -29.8426 -26.7409
lfingers 7.12502
lthumb -3.16543 3.21535
rfemur -20.0118 0.81448 5.9721
rtibia 67.9868
rfoot -1.98816 1.3857
rtoes 10.7267
lfemur -9.34335 -1.85998 -38.1987
ltibia 22.6478
lfoot -20.6706 8.0776
ltoes 29.6382
364
root -13.8051 16.3467 13.177 -6.6338 77.0667 -10.2627
lowerback 13.1689 1.3946 -4.57243
upperback 5.43588 1.4746 -1.00352
thorax -1.74115 0.781355 1.31404
lowerneck -22.2122 8.34489 11.5043
upperneck 24.4469 11.0378 -10.2606
head 13.1625 4.70014 -3.845
rclavicle -3.97569e-016 1.03368e-014
rhumerus -42.3909 22.6601 -89.9794
rradius 40.1883
rwrist -15.1662
rhand -20.7175 -33.049
rfingers 7.12502
rthumb 5.64707 -62.9538
lclavicle -3.97569e-016 1.03368e-014
lhumerus -28.2834 -31.9517 93.1097
lradius 60.6166
lwrist 23.2107
lhand -29.5305 -27.0649
lfingers 7.12502
lthumb -2.86404 2.89564
rfemur -21.8661 1.10277 5.14678
rtibia 66.9417
rfoot -3.27527 0.967179
rtoes 9.17176
lfemur -7.15154 -3.17285 -39.0821
ltibia 20.6897
lfoot -20.3434 7.72018
ltoes 29.0902
365
root -13.5738 16.4176 13.2221 -5.18653 78.6747 -9.00379
lowerback 13.3141 1.34802 -4.71486
upperback 5.08645 1.3633 -1.04382
thorax -2.18146 0.733888 1.36067
lowerneck -22.5252 8.11332 11.2111
upperneck 24.739 10.7201 -9.96987
head 13.2612 4.56116 -3.74524
rclavicle -1.82882e-014 2.22639e-014
rhumerus -44.3437 21.3205 -89.5283
rradius 38.1332
rwrist -14.4427
rhand -20.144 -33.4253
rfingers 7.12502
rthumb 6.20076 -63.3145
lclavicle -1.82882e-014 2.22639e-014
lhumerus -27.4566 -33.6074 92.8935
lradius 63.1642
lwrist 22.502
lhand -29.8257 -27.5924
lfingers 7.12502
lthumb -3.14909 2.36406
rfemur -23.86 1.3772 4.39119
rtibia 65.8305
rfoot -4.44412 0.639149
rtoes 8.8047
lfemur -5.21413 -4.49787 -39.8153
ltibia 18.9212
lfoot -19.7091 7.41583
ltoes 28.0293
366
root -13.3186 16.4775 13.2588 -3.75772 80.0134 -7.75405
lowerback 12.5173 1.36384 -5.07264
upperback 5.21324 1.40293 -0.792904
thorax -1.63237 0.734945 1.83537
lowerneck -22.9573 7.91228 10.7775
upperneck 24.7736 10.5428 -9.96376
head 13.3111 4.42984 -3.69933
rclavicle 2.22639e-014 0
rhumerus -45.7756 20.5392 -88.5464
rradius 36.4184
rwrist -13.5626
rhand -19.384 -33.6295
rfingers 7.12502
rthumb 6.93444 -63.4959
lclavicle 2.22639e-014 0
lhumerus -25.7818 -34.6864 92.5057
lradius 65.922
lwrist 22.6466
lhand -29.4437 -27.6114
lfingers 7.12502
lthumb -2.78022 2.35018
rfemur -25.803 1.91338 3.62936
rtibia 64.8891
rfoot -6.77629 0.409064
rtoes 7.04611
lfemur -3.13493 -5.99515 -40.5224
ltibia 16.9853
lfoot -19.3945 7.41965
ltoes 28.4054
367
root -13.1221 16.5269 13.3254 -2.59374 82.4844 -7.01133
lowerback 13.1257 1.13749 -5.32788
upperback 4.5244 0.992081 -0.645931
thorax -2.66125 0.55338 2.17488
lowerneck -23.089 7.55985 10.5667
upperneck 25.2916 10.133 -9.83527
head 13.4761 4.2479 -3.7053
rclavicle -1.03368e-014 -1.27222e-014
rhumerus -48.4296 19.4542 -88.1976
rradius 35.2357
rwrist -12.3616
rhand -19.0718 -33.3139
rfingers 7.12502
rthumb 7.23583 -63.1702
lclavicle -1.03368e-014 -1.27222e-014
lhumerus -25.2495 -36.2852 92.49
lradius 68.3315
lwrist 22.2302
lhand -29.5567 -28.0083
lfingers 7.12502
lthumb -2.88935 1.95186
rfemur -27.3485 1.04 3.04072
rtibia 62.7384
rfoot -6.9835 -0.998472
rtoes 5.69412
lfemur -1.73915 -7.2324 -40.8391
ltibia 15.939
lfoot -19.1332 6.19256
ltoes 28.6375
368
root -12.8862 16.5749 13.3768 -0.979498 84.1242 -5.55462
lowerback 12.6912 1.03474 -5.55827
upperback 4.55443 0.863429 -0.499824
thorax -2.38797 0.480709 2.48253
lowerneck -23.2158 7.34822 10.3674
upperneck 25.2013 9.93869 -10.0154
head 13.4402 4.11924 -3.77965
rclavicle 9.93923e-015 -1.78906e-014
rhumerus -50.2472 18.68 -87.5076
rradius 34.4113
rwrist -11.5126
rhand -18.7439 -32.6602
rfingers 7.12502
rthumb 7.55237 -62.5054
lclavicle 9.93923e-015 -1.78906e-014
lhumerus -23.472 -37.7302 91.6917
lradius 70.4276
lwrist 22.0446
lhand -29.7438 -28.5066
lfingers 7.12502
lthumb -3.07006 1.45107
rfemur -28.7207 1.00669 2.36854
rtibia 60.6369
rfoot -6.81346 -2.14989
rtoes 8.01905
lfemur 0.0713011 -7.83036 -41.1318
ltibia 14.4035
lfoot -18.7198 5.34171
ltoes 28.3151
369
root -12.6521 16.6128 13.4257 1.88214 85.9783 -2.86404
lowerback 12.5396 0.842767 -5.81775
upperback 4.43427 0.587722 -0.282453
thorax -2.41114 0.342495 2.89729
lowerneck -23.2455 7.13886 9.83703
upperneck 25.0981 9.80803 -9.95731
head 13.3514 4.0208 -3.69075
rclavicle -2.18663e-015 3.97569e-016
rhumerus -52.4506 18.0787 -86.8356
rradius 34.2035
rwrist -11.1663
rhand -18.1432 -32.3766
rfingers 7.12502
rthumb 8.13215 -62.2001
lclavicle -2.18663e-015 3.97569e-016
lhumerus -21.8637 -38.9318 90.937
lradius 72.5833
lwrist 21.9354
lhand -29.9461 -29.0205
lfingers 7.12502
lthumb -3.26541 0.934261
rfemur -29.777 0.714363 1.59808
rtibia 58.289
rfoot -7.24681 -2.93044
rtoes 8.167
lfemur 1.83276 -8.2158 -41.36
ltibia 12.9915
lfoot -18.2151 4.02618
ltoes 27.4979
370
root -12.4153 16.6365 13.4727 4.95334 87.7776 -0.0261193
lowerback 12.5204 0.681168 -5.9088
upperback 4.1606 0.353711 0.014398
thorax -2.66796 0.232699 3.29345
lowerneck -23.3363 6.88045 9.2956
upperneck 25.2059 9.6472 -9.93091
head 13.3613 3.90273 -3.62237
rclavicle 8.94531e-016 -1.15295e-014
rhumerus -55.2193 17.7492 -86.364
rradius 34.4846
rwrist -10.9636
rhand -17.9025 -31.9896
rfingers 7.12502
rthumb 8.36445 -61.804
lclavicle 8.94531e-016 -1.15295e-014
lhumerus -20.3848 -40.0082 90.2616
lradius 74.6989
lwrist 22.0882
lhand -30.1401 -29.5477
lfingers 7.12502
lthumb -3.45276 0.40411
rfemur -30.5619 0.488317 0.961021
rtibia 55.4793
rfoot -8.44196 -3.44261
rtoes 5.77403
lfemur 3.35821 -8.31259 -41.2791
ltibia 11.9048
lfoot -17.9284 2.3973
ltoes 26.9069
371
root -12.1751 16.6506 13.517 12.5566 89.2798 7.38611
lowerback 11.9474 0.533544 -5.81043
upperback 4.25516 0.218402 0.192473
thorax -2.24393 0.150924 3.44455
lowerneck -23.4987 6.69405 8.96007
upperneck 25.0596 9.44803 -9.85983
head 13.2863 3.78864 -3.57162
rclavicle -7.95139e-016 1.27222e-014
rhumerus -57.5361 17.4869 -86.0815
rradius 35.0261
rwrist -10.9511
rhand -17.7195 -31.7368
rfingers 7.12502
rthumb 8.54106 -61.544
lclavicle -7.95139e-016 1.27222e-014
lhumerus -18.0715 -40.9317 88.8422
lradius 76.6125
lwrist 22.5138
lhand -30.3592 -30.0047
lfingers 7.12502
lthumb -3.66435 -0.0564768
rfemur -31.1971 0.538819 0.41711
rtibia 52.4186
rfoot -9.40725 -4.02034
rtoes 3.02485
lfemur 4.80066 -8.14715 -41.0283
ltibia 10.9349
lfoot -17.6817 0.789754
ltoes 26.9907
372
root -11.9331 16.6477 13.56 -29.0049 90.5739 -34.5195
lowerback 11.5685 0.562938 -5.97581
upperback 4.03544 0.249093 0.338995
thorax -2.27104 0.165204 3.6874
lowerneck -23.7381 6.56485 8.87968
upperneck 25.2276 9.29997 -9.87182
head 13.3829 3.70798 -3.59289
rclavicle -3.08116e-015 -6.36111e-015
rhumerus -60.3782 17.2973 -86.0478
rradius 35.9228
rwrist -11.3656
rhand -17.4789 -31.9087
rfingers 7.12502
rthumb 8.77327 -61.7063
lclavicle -3.08116e-015 -6.36111e-015
lhumerus -16.3474 -41.8429 87.8618
lradius 78.4864
lwrist 22.6942
lhand -30.6552 -30.081
lfingers 7.12502
lthumb -3.95023 -0.137904
rfemur -32.0215 0.651571 -0.346191
rtibia 49.1065
rfoot -9.90367 -4.65525
rtoes 0.892086
lfemur 6.01734 -7.74165 -40.9017
ltibia 9.92145
lfoot -17.304 -0.729949
ltoes 27.7702
373
root -11.6861 16.65 13.603 -9.00222 92.8419 -14.4676
lowerback 11.5798 0.165643 -6.09389
upperback 4.067 -0.278517 0.485857
thorax -2.18404 -0.0993052 3.97821
lowerneck -23.6783 6.31117 8.33522
upperneck 24.9519 9.04867 -9.67018
head 13.1857 3.57675 -3.46501
rclavicle 6.95746e-016 5.56597e-015
rhumerus -62.9717 17.5291 -86.2977
rradius 37.0248
rwrist -12.2604
rhand -17.3889 -32.1567
rfingers 7.12502
rthumb 8.8601 -61.9507
lclavicle 6.95746e-016 5.56597e-015
lhumerus -13.7992 -42.876 86.1982
lradius 79.9446
lwrist 23.1842
lhand -31.0981 -29.9817
lfingers 7.12502
lthumb -4.37782 -0.0469787
rfemur -31.4201 0.0810482 -1.42153
rtibia 44.7816
rfoot -10.3207 -5.49517
rtoes 0.713085
lfemur 7.76497 -7.51045 -40.7213
ltibia 9.09409
lfoot -16.7323 -2.88481
ltoes 29.0854
374
root -11.4455 16.6266 13.6475 -7.29538 94.0125 -13.0591
lowerback 10.9657 0.0589999 -6.28394
upperback 4.12113 -0.394269 0.623523
thorax -1.77442 -0.174166 4.23896
lowerneck -23.9721 6.28855 8.4198
upperneck 24.8899 9.06355 -10.0131
head 13.2485 3.53832 -3.60746
rclavicle 7.05686e-015 -1.37161e-014
rhumerus -65.2672 17.8932 -86.6161
rradius 38.1113
rwrist -13.1966
rhand -17.3889 -32.3487
rfingers 7.12502
rthumb 8.8601 -62.1427
lclavicle 7.05686e-015 -1.37161e-014
lhumerus -10.6856 -43.6168 84.0552
lradius 81.0849
lwrist 23.9992
lhand -31.2763 -30.2273
lfingers 7.12502
lthumb -4.5499 -0.296174
rfemur -31.9055 -0.0193419 -2.16175
rtibia 41.4229
rfoot -11.0962 -5.95821
rtoes -1.63269
lfemur 8.88757 -6.42964 -40.2288
ltibia 8.14208
lfoot -16.1474 -4.7043
ltoes 29.7256
375
root -11.19 16.6022 13.6878 -5.06716 95.841 -10.8661
lowerback 10.7281 -0.227071 -6.23205
upperback 4.0887 -0.750358 0.729154
thorax -1.63518 -0.356097 4.35985
lowerneck -23.7907 6.21488 8.67799
upperneck 24.6883 8.98594 -10.4265
head 13.1609 3.48619 -3.82791
rclavicle 1.20762e-014 4.07509e-015
rhumerus -67.7507 17.9397 -86.9127
rradius 39.1248
rwrist -13.8808
rhand -17.1991 -32.4463
rfingers 7.12502
rthumb 9.04325 -62.2324
lclavicle 1.20762e-014 4.07509e-015
lhumerus -8.41395 -43.8738 82.4736
lradius 82.447
lwrist 24.2415
lhand -31.0019 -30.5681
lfingers 7.12502
lthumb -4.28495 -0.631436
rfemur -31.2123 -0.384903 -3.00166
rtibia 37.1811
rfoot -11.8625 -6.58692
rtoes -1.9622
lfemur 10.4269 -5.69097 -39.6402
ltibia 7.36926
lfoot -15.6696 -6.51795
ltoes 30.0103
376
root -10.9453 16.5647 13.7212 -4.47824 97.0325 -10.461
lowerback 10.3903 -0.307732 -6.18029
upperback 3.99485 -0.837638 0.747962
thorax -1.53895 -0.402711 4.35566
lowerneck -23.8913 5.98399 8.24426
upperneck 24.8473 8.68237 -9.9609
head 13.1581 3.36829 -3.63183
rclavicle 9.34288e-015 6.4605e-016
rhumerus -70.128 17.9904 -87.3038
rradius 40.1448
rwrist -14.5832
rhand -16.8553 -32.3858
rfingers 7.12502
rthumb 9.37496 -62.1574
lclavicle 9.34288e-015 6.4605e-016
lhumerus -6.57914 -44.1406 81.2227
lradius 83.6048
lwrist 24.1207
lhand -31.3163 -30.9873
lfingers 7.12502
lthumb -4.58859 -1.05703
rfemur -31.0749 -0.611307 -3.81644
rtibia 32.9838
rfoot -12.3181 -6.7407
rtoes -3.01441
lfemur 11.505 -4.87615 -39.2166
ltibia 6.9567
lfoot -15.3481 -7.74328
ltoes 30.9845
